<mxfile host="65bd71144e">
    <diagram id="_qYy_YDmPthP_Fgu3tGh" name="페이지-1">
        <mxGraphModel dx="662" dy="670" grid="1" gridSize="10" guides="1" tooltips="1" connect="1" arrows="1" fold="1" page="1" pageScale="1" pageWidth="827" pageHeight="1169" math="0" shadow="0">
            <root>
                <mxCell id="0"/>
                <mxCell id="1" parent="0"/>
                <mxCell id="137" style="edgeStyle=none;html=1;entryX=0;entryY=0.5;entryDx=0;entryDy=0;" parent="1" source="17" target="136" edge="1">
                    <mxGeometry relative="1" as="geometry"/>
                </mxCell>
                <mxCell id="17" value="Product" style="swimlane;fontStyle=0;childLayout=stackLayout;horizontal=1;startSize=30;horizontalStack=0;resizeParent=1;resizeParentMax=0;resizeLast=0;collapsible=1;marginBottom=0;whiteSpace=wrap;html=1;" parent="1" vertex="1">
                    <mxGeometry x="620" y="340" width="100" height="60" as="geometry"/>
                </mxCell>
                <mxCell id="18" value="ProductId" style="text;strokeColor=none;fillColor=none;align=left;verticalAlign=middle;spacingLeft=4;spacingRight=4;overflow=hidden;points=[[0,0.5],[1,0.5]];portConstraint=eastwest;rotatable=0;whiteSpace=wrap;html=1;" parent="17" vertex="1">
                    <mxGeometry y="30" width="100" height="30" as="geometry"/>
                </mxCell>
                <mxCell id="68" value="API" style="shape=umlLifeline;perimeter=lifelinePerimeter;whiteSpace=wrap;html=1;container=1;collapsible=0;recursiveResize=0;outlineConnect=0;" parent="1" vertex="1">
                    <mxGeometry x="110" y="180" width="100" height="580" as="geometry"/>
                </mxCell>
                <mxCell id="73" value="Service" style="shape=umlLifeline;perimeter=lifelinePerimeter;whiteSpace=wrap;html=1;container=1;collapsible=0;recursiveResize=0;outlineConnect=0;movable=1;resizable=1;rotatable=1;deletable=1;editable=1;connectable=1;" parent="1" vertex="1">
                    <mxGeometry x="256" y="180" width="142" height="580" as="geometry"/>
                </mxCell>
                <mxCell id="74" value="" style="html=1;points=[];perimeter=orthogonalPerimeter;" parent="73" vertex="1">
                    <mxGeometry x="64" y="321.41" width="10" height="180" as="geometry"/>
                </mxCell>
                <mxCell id="112" value="" style="aspect=fixed;html=1;points=[];align=center;image;fontSize=12;image=img/lib/azure2/compute/Batch_Accounts.svg;labelBackgroundColor=#000000;fillColor=#FFFFFF;" parent="73" vertex="1">
                    <mxGeometry x="55" y="280.00000000000006" width="44" height="41.41" as="geometry"/>
                </mxCell>
                <mxCell id="119" value="read * from&amp;nbsp; procedure" style="html=1;verticalAlign=bottom;endArrow=block;dashed=1;" parent="73" edge="1">
                    <mxGeometry width="80" relative="1" as="geometry">
                        <mxPoint x="74" y="341.41" as="sourcePoint"/>
                        <mxPoint x="289.5" y="341.41" as="targetPoint"/>
                    </mxGeometry>
                </mxCell>
                <mxCell id="83" value="Repository" style="shape=umlLifeline;perimeter=lifelinePerimeter;whiteSpace=wrap;html=1;container=1;collapsible=0;recursiveResize=0;outlineConnect=0;" parent="1" vertex="1">
                    <mxGeometry x="500" y="180" width="100" height="580" as="geometry"/>
                </mxCell>
                <mxCell id="85" value="" style="sketch=0;aspect=fixed;html=1;points=[];align=center;image;fontSize=12;image=img/lib/mscae/Cache_Redis_Product.svg;" parent="83" vertex="1">
                    <mxGeometry x="50" y="430" width="50" height="42" as="geometry"/>
                </mxCell>
                <mxCell id="118" value="" style="outlineConnect=0;dashed=0;verticalLabelPosition=bottom;verticalAlign=top;align=center;html=1;shape=mxgraph.aws3.mysql_db_instance_2;fillColor=#2E73B8;gradientColor=none;" parent="83" vertex="1">
                    <mxGeometry x="50" y="321.41" width="50" height="53" as="geometry"/>
                </mxCell>
                <mxCell id="92" value="save top-n most searched products" style="html=1;verticalAlign=bottom;endArrow=block;dashed=1;entryX=-0.084;entryY=0.362;entryDx=0;entryDy=0;entryPerimeter=0;" parent="1" edge="1" target="85">
                    <mxGeometry width="80" relative="1" as="geometry">
                        <mxPoint x="330" y="624" as="sourcePoint"/>
                        <mxPoint x="529.5" y="624.41" as="targetPoint"/>
                    </mxGeometry>
                </mxCell>
                <mxCell id="93" value="return success" style="html=1;verticalAlign=bottom;endArrow=block;dashed=1;" parent="1" edge="1">
                    <mxGeometry x="0.0001" width="80" relative="1" as="geometry">
                        <mxPoint x="551.18" y="650" as="sourcePoint"/>
                        <mxPoint x="332.00352941176465" y="650" as="targetPoint"/>
                        <mxPoint as="offset"/>
                        <Array as="points">
                            <mxPoint x="391.68" y="650"/>
                        </Array>
                    </mxGeometry>
                </mxCell>
                <mxCell id="122" value="return top-n most searched products" style="html=1;verticalAlign=bottom;endArrow=block;dashed=1;" parent="1" edge="1" source="83">
                    <mxGeometry x="0.0001" width="80" relative="1" as="geometry">
                        <mxPoint x="529.18" y="551.41" as="sourcePoint"/>
                        <mxPoint x="330" y="551" as="targetPoint"/>
                        <mxPoint as="offset"/>
                        <Array as="points">
                            <mxPoint x="369.68" y="551.41"/>
                        </Array>
                    </mxGeometry>
                </mxCell>
                <mxCell id="123" value="Top N product 임시테이블" style="shape=table;startSize=30;container=1;collapsible=0;childLayout=tableLayout;fixedRows=1;rowLines=0;fontStyle=1;" parent="1" vertex="1">
                    <mxGeometry x="983" y="300" width="180" height="120" as="geometry"/>
                </mxCell>
                <mxCell id="124" value="" style="shape=tableRow;horizontal=0;startSize=0;swimlaneHead=0;swimlaneBody=0;top=0;left=0;bottom=0;right=0;collapsible=0;dropTarget=0;fillColor=none;points=[[0,0.5],[1,0.5]];portConstraint=eastwest;" parent="123" vertex="1">
                    <mxGeometry y="30" width="180" height="30" as="geometry"/>
                </mxCell>
                <mxCell id="125" value="pid1" style="shape=partialRectangle;html=1;whiteSpace=wrap;connectable=0;fillColor=none;top=0;left=0;bottom=0;right=0;overflow=hidden;pointerEvents=1;" parent="124" vertex="1">
                    <mxGeometry width="40" height="30" as="geometry">
                        <mxRectangle width="40" height="30" as="alternateBounds"/>
                    </mxGeometry>
                </mxCell>
                <mxCell id="126" value="product_1's view_count" style="shape=partialRectangle;html=1;whiteSpace=wrap;connectable=0;fillColor=none;top=0;left=0;bottom=0;right=0;align=left;spacingLeft=6;overflow=hidden;" parent="124" vertex="1">
                    <mxGeometry x="40" width="140" height="30" as="geometry">
                        <mxRectangle width="140" height="30" as="alternateBounds"/>
                    </mxGeometry>
                </mxCell>
                <mxCell id="127" value="" style="shape=tableRow;horizontal=0;startSize=0;swimlaneHead=0;swimlaneBody=0;top=0;left=0;bottom=0;right=0;collapsible=0;dropTarget=0;fillColor=none;points=[[0,0.5],[1,0.5]];portConstraint=eastwest;" parent="123" vertex="1">
                    <mxGeometry y="60" width="180" height="30" as="geometry"/>
                </mxCell>
                <mxCell id="128" value="pid2" style="shape=partialRectangle;html=1;whiteSpace=wrap;connectable=0;fillColor=none;top=0;left=0;bottom=0;right=0;overflow=hidden;" parent="127" vertex="1">
                    <mxGeometry width="40" height="30" as="geometry">
                        <mxRectangle width="40" height="30" as="alternateBounds"/>
                    </mxGeometry>
                </mxCell>
                <mxCell id="129" value="product_2's view_count" style="shape=partialRectangle;html=1;whiteSpace=wrap;connectable=0;fillColor=none;top=0;left=0;bottom=0;right=0;align=left;spacingLeft=6;overflow=hidden;" parent="127" vertex="1">
                    <mxGeometry x="40" width="140" height="30" as="geometry">
                        <mxRectangle width="140" height="30" as="alternateBounds"/>
                    </mxGeometry>
                </mxCell>
                <mxCell id="130" value="" style="shape=tableRow;horizontal=0;startSize=0;swimlaneHead=0;swimlaneBody=0;top=0;left=0;bottom=0;right=0;collapsible=0;dropTarget=0;fillColor=none;points=[[0,0.5],[1,0.5]];portConstraint=eastwest;" parent="123" vertex="1">
                    <mxGeometry y="90" width="180" height="30" as="geometry"/>
                </mxCell>
                <mxCell id="131" value="pid3" style="shape=partialRectangle;html=1;whiteSpace=wrap;connectable=0;fillColor=none;top=0;left=0;bottom=0;right=0;overflow=hidden;" parent="130" vertex="1">
                    <mxGeometry width="40" height="30" as="geometry">
                        <mxRectangle width="40" height="30" as="alternateBounds"/>
                    </mxGeometry>
                </mxCell>
                <mxCell id="132" value="product_3's view_count" style="shape=partialRectangle;html=1;whiteSpace=wrap;connectable=0;fillColor=none;top=0;left=0;bottom=0;right=0;align=left;spacingLeft=6;overflow=hidden;" parent="130" vertex="1">
                    <mxGeometry x="40" width="140" height="30" as="geometry">
                        <mxRectangle width="140" height="30" as="alternateBounds"/>
                    </mxGeometry>
                </mxCell>
                <mxCell id="139" style="edgeStyle=none;html=1;entryX=-0.019;entryY=0.227;entryDx=0;entryDy=0;entryPerimeter=0;" parent="1" source="136" target="127" edge="1">
                    <mxGeometry relative="1" as="geometry">
                        <mxPoint x="949" y="259" as="targetPoint"/>
                    </mxGeometry>
                </mxCell>
                <mxCell id="136" value="trigger &lt;br&gt;when read, view_count+1" style="ellipse;whiteSpace=wrap;html=1;" parent="1" vertex="1">
                    <mxGeometry x="793" y="330" width="120" height="80" as="geometry"/>
                </mxCell>
                <mxCell id="140" value="procedure&amp;nbsp;&lt;br&gt;top-N-products" style="ellipse;whiteSpace=wrap;html=1;" parent="1" vertex="1">
                    <mxGeometry x="620" y="490" width="120" height="80" as="geometry"/>
                </mxCell>
                <mxCell id="142" value="&lt;h1&gt;&lt;span style=&quot;background-color: initial; font-size: 12px; font-weight: normal;&quot;&gt;1. sort 임시테이블 by view_count&lt;/span&gt;&lt;br&gt;&lt;/h1&gt;&lt;p&gt;2. limit top N&lt;/p&gt;&lt;p&gt;&lt;span style=&quot;background-color: initial;&quot;&gt;3. join 임시테이블 with product table on product_id&lt;/span&gt;&lt;/p&gt;" style="text;html=1;strokeColor=none;fillColor=none;spacing=5;spacingTop=-20;whiteSpace=wrap;overflow=hidden;rounded=0;" parent="1" vertex="1">
                    <mxGeometry x="758" y="480" width="190" height="110" as="geometry"/>
                </mxCell>
                <mxCell id="143" value="batch&amp;nbsp;&lt;br&gt;every 20m" style="ellipse;shape=cloud;whiteSpace=wrap;html=1;" parent="1" vertex="1">
                    <mxGeometry x="340" y="410" width="100" height="61.41" as="geometry"/>
                </mxCell>
                <mxCell id="145" value="" style="html=1;points=[];perimeter=orthogonalPerimeter;" vertex="1" parent="1">
                    <mxGeometry x="155" y="240" width="10" height="210" as="geometry"/>
                </mxCell>
                <mxCell id="146" value="read from cache" style="html=1;verticalAlign=bottom;endArrow=block;exitX=1.125;exitY=0.696;exitDx=0;exitDy=0;exitPerimeter=0;" edge="1" parent="1">
                    <mxGeometry width="80" relative="1" as="geometry">
                        <mxPoint x="322" y="302.28" as="sourcePoint"/>
                        <mxPoint x="430" y="300" as="targetPoint"/>
                    </mxGeometry>
                </mxCell>
                <mxCell id="147" value="" style="html=1;points=[];perimeter=orthogonalPerimeter;" vertex="1" parent="1">
                    <mxGeometry x="322" y="250" width="10" height="190" as="geometry"/>
                </mxCell>
                <mxCell id="148" value="" style="endArrow=classic;html=1;" edge="1" parent="1">
                    <mxGeometry width="50" height="50" relative="1" as="geometry">
                        <mxPoint x="410" y="320" as="sourcePoint"/>
                        <mxPoint x="332" y="320" as="targetPoint"/>
                        <Array as="points">
                            <mxPoint x="365.75" y="320"/>
                        </Array>
                    </mxGeometry>
                </mxCell>
                <mxCell id="149" value="return if exists" style="edgeLabel;html=1;align=center;verticalAlign=middle;resizable=0;points=[];" vertex="1" connectable="0" parent="148">
                    <mxGeometry x="0.3979" y="4" relative="1" as="geometry">
                        <mxPoint x="25" y="-14" as="offset"/>
                    </mxGeometry>
                </mxCell>
                <mxCell id="150" value="" style="endArrow=classic;html=1;" edge="1" parent="1">
                    <mxGeometry width="50" height="50" relative="1" as="geometry">
                        <mxPoint x="529.5" y="380" as="sourcePoint"/>
                        <mxPoint x="332" y="380" as="targetPoint"/>
                        <Array as="points">
                            <mxPoint x="465.75" y="380"/>
                            <mxPoint x="365.75" y="380"/>
                        </Array>
                    </mxGeometry>
                </mxCell>
                <mxCell id="151" value="return product" style="edgeLabel;html=1;align=center;verticalAlign=middle;resizable=0;points=[];" vertex="1" connectable="0" parent="150">
                    <mxGeometry x="0.3979" y="4" relative="1" as="geometry">
                        <mxPoint x="37" y="-14" as="offset"/>
                    </mxGeometry>
                </mxCell>
                <mxCell id="152" value="read product" style="html=1;verticalAlign=bottom;endArrow=block;" edge="1" parent="1">
                    <mxGeometry x="-0.0258" width="80" relative="1" as="geometry">
                        <mxPoint x="170.0000000000001" y="270" as="sourcePoint"/>
                        <mxPoint x="320" y="270" as="targetPoint"/>
                        <mxPoint as="offset"/>
                    </mxGeometry>
                </mxCell>
                <mxCell id="153" value="" style="outlineConnect=0;dashed=0;verticalLabelPosition=bottom;verticalAlign=top;align=center;html=1;shape=mxgraph.aws3.mysql_db_instance_2;fillColor=#2E73B8;gradientColor=none;" vertex="1" parent="1">
                    <mxGeometry x="530" y="345" width="50" height="53" as="geometry"/>
                </mxCell>
                <mxCell id="155" value="" style="sketch=0;aspect=fixed;html=1;points=[];align=center;image;fontSize=12;image=img/lib/mscae/Cache_Redis_Product.svg;" vertex="1" parent="1">
                    <mxGeometry x="430" y="280" width="50" height="42" as="geometry"/>
                </mxCell>
                <mxCell id="156" value="if not cached, read product" style="html=1;verticalAlign=bottom;endArrow=block;" edge="1" parent="1">
                    <mxGeometry width="80" relative="1" as="geometry">
                        <mxPoint x="330" y="360" as="sourcePoint"/>
                        <mxPoint x="530" y="360" as="targetPoint"/>
                    </mxGeometry>
                </mxCell>
                <mxCell id="157" value="" style="endArrow=classic;html=1;exitX=0.1;exitY=0.845;exitDx=0;exitDy=0;exitPerimeter=0;" edge="1" parent="1" source="147">
                    <mxGeometry width="50" height="50" relative="1" as="geometry">
                        <mxPoint x="326.75" y="445.0049999999999" as="sourcePoint"/>
                        <mxPoint x="159.5" y="410.54999999999995" as="targetPoint"/>
                    </mxGeometry>
                </mxCell>
                <mxCell id="158" value="return product" style="edgeLabel;html=1;align=center;verticalAlign=middle;resizable=0;points=[];" vertex="1" connectable="0" parent="157">
                    <mxGeometry x="0.2246" y="-4" relative="1" as="geometry">
                        <mxPoint x="18" y="-6" as="offset"/>
                    </mxGeometry>
                </mxCell>
                <mxCell id="172" value="" style="endArrow=classic;html=1;exitX=0.528;exitY=1.053;exitDx=0;exitDy=0;exitPerimeter=0;entryX=0.5;entryY=0;entryDx=0;entryDy=0;" edge="1" parent="1" source="18" target="140">
                    <mxGeometry width="50" height="50" relative="1" as="geometry">
                        <mxPoint x="820" y="520" as="sourcePoint"/>
                        <mxPoint x="870" y="470" as="targetPoint"/>
                    </mxGeometry>
                </mxCell>
                <mxCell id="173" value="" style="endArrow=classic;html=1;exitX=0.504;exitY=1.02;exitDx=0;exitDy=0;exitPerimeter=0;entryX=0.5;entryY=0;entryDx=0;entryDy=0;" edge="1" parent="1" source="130" target="140">
                    <mxGeometry width="50" height="50" relative="1" as="geometry">
                        <mxPoint x="820" y="520" as="sourcePoint"/>
                        <mxPoint x="870" y="470" as="targetPoint"/>
                    </mxGeometry>
                </mxCell>
            </root>
        </mxGraphModel>
    </diagram>
</mxfile>